<?xml version="1.0" standalone="no"?>
<!DOCTYPE svg PUBLIC "-//W3C//DTD SVG 20010904//EN"
 "http://www.w3.org/TR/2001/REC-SVG-20010904/DTD/svg10.dtd">
<svg version="1.0" xmlns="http://www.w3.org/2000/svg"
 width="730.000000pt" height="730.000000pt" viewBox="0 0 730.000000 730.000000"
 preserveAspectRatio="xMidYMid meet">

<g transform="translate(0.000000,730.000000) scale(0.100000,-0.100000)"
fill="#000000" stroke="none">
<path d="M2750 7189 c-652 -244 -773 -292 -983 -392 -123 -58 -129 -63 -168
-120 -21 -33 -38 -61 -36 -63 2 -2 64 21 138 52 74 30 260 105 414 165 154 60
300 118 325 129 25 11 119 48 210 83 283 110 277 107 336 170 54 58 65 78 42
76 -7 -1 -132 -46 -278 -100z"/>
<path d="M3735 7091 c-432 -109 -679 -181 -1080 -316 -670 -224 -1206 -459
-1785 -783 -123 -69 -125 -70 -147 -123 -42 -105 -66 -219 -67 -324 0 -55 2
-111 6 -125 6 -21 -7 -44 -78 -140 -182 -245 -267 -399 -305 -549 -26 -103
-23 -263 5 -351 l18 -56 -42 -69 c-61 -98 -163 -315 -193 -410 -48 -147 -61
-223 -61 -350 1 -211 53 -340 186 -458 68 -62 143 -109 220 -141 l54 -21 -58
-148 c-117 -295 -154 -454 -145 -627 10 -180 67 -312 191 -435 100 -99 178
-136 302 -143 82 -4 97 -2 145 20 30 14 88 54 129 89 96 83 131 109 141 109 5
0 9 -36 9 -79 0 -262 54 -508 146 -666 111 -189 290 -307 529 -346 133 -22
463 -9 677 27 36 6 37 6 43 -32 48 -274 95 -384 215 -498 105 -99 243 -153
366 -144 157 11 280 118 682 589 219 256 350 383 492 475 157 101 662 337
1007 469 l113 43 32 -57 c137 -243 252 -332 443 -345 121 -7 305 37 412 100
62 36 148 125 180 187 66 126 89 218 103 417 11 150 11 152 -45 605 -14 110
-40 331 -59 490 -19 160 -78 646 -130 1082 -53 435 -100 842 -106 905 -27 320
-50 593 -55 678 l-7 95 51 -56 c50 -56 91 -80 91 -54 0 33 -83 280 -129 384
-45 101 -166 321 -178 321 -10 0 -75 -152 -80 -187 -2 -21 23 -252 56 -513 33
-261 94 -743 135 -1070 149 -1177 226 -1786 236 -1865 18 -140 100 -963 100
-1005 0 -38 -3 -43 -79 -99 -88 -65 -193 -113 -288 -131 -84 -17 -214 -8 -287
18 -71 26 -156 90 -199 149 l-30 42 74 79 c146 152 211 276 245 467 18 103 13
186 -17 296 -42 150 -141 304 -216 335 -52 22 -150 18 -208 -10 -163 -75 -253
-345 -216 -646 11 -92 55 -321 66 -352 5 -12 -20 -28 -97 -66 -108 -53 -257
-122 -263 -122 -2 0 -84 -34 -182 -75 -524 -223 -728 -371 -1044 -765 -281
-350 -440 -502 -614 -588 -149 -75 -272 -42 -367 98 -66 99 -113 293 -94 391
6 33 11 36 119 78 160 62 438 198 589 288 389 232 615 484 658 736 15 82 1
222 -30 312 -11 32 -53 126 -94 209 -71 144 -116 258 -116 291 0 21 29 19 68
-5 33 -20 87 -27 96 -11 6 9 -350 411 -364 411 -27 0 -61 -82 -80 -187 l-11
-62 70 -153 c38 -84 103 -223 144 -308 113 -234 207 -462 207 -500 0 -49 -322
-308 -555 -447 -178 -106 -403 -218 -619 -307 l-39 -16 6 62 c12 129 86 294
197 442 78 104 100 142 100 170 0 10 -32 51 -70 90 l-70 73 77 65 c43 36 147
137 232 223 l154 158 36 -42 c43 -49 65 -52 80 -11 12 37 1 73 -36 112 -25 26
-25 28 -14 91 22 128 9 206 -45 263 -89 96 -211 -34 -202 -215 3 -68 6 -75 36
-102 18 -16 39 -29 47 -29 21 0 20 -4 -21 -68 -64 -101 -227 -276 -350 -378
l-42 -35 -36 18 -36 17 -30 -29 c-41 -39 -97 -124 -106 -158 -6 -24 3 -37 80
-115 47 -49 86 -93 86 -99 0 -6 -18 -48 -39 -94 -33 -71 -72 -172 -158 -408
-18 -50 -35 -59 -170 -93 -76 -19 -116 -22 -298 -22 -246 -1 -312 12 -480 93
-247 120 -367 338 -382 691 l-5 125 69 80 c99 114 235 220 393 307 115 63 278
127 608 239 690 233 852 365 852 699 0 234 -100 450 -327 706 -56 63 -75 94
-57 94 16 0 267 -186 369 -274 119 -103 292 -262 478 -439 199 -190 301 -278
397 -342 74 -49 212 -120 253 -130 16 -4 33 -17 37 -29 9 -22 30 -201 56 -474
8 -86 17 -267 21 -400 7 -271 7 -271 59 -92 56 194 68 307 68 652 l0 318 65
21 c90 29 235 102 301 151 75 56 123 110 161 181 78 147 95 301 60 552 -11 83
-34 251 -51 375 -17 124 -37 270 -45 325 -122 855 -257 1893 -262 2018 -3 81
-3 147 0 147 4 0 39 -25 79 -56 40 -31 74 -51 76 -45 14 41 -104 324 -208 501
-18 30 -48 84 -67 120 -20 36 -39 69 -43 73 -7 8 -49 -100 -69 -176 -12 -48
-3 -134 49 -452 21 -132 46 -294 54 -360 9 -66 27 -205 41 -310 222 -1662 278
-2089 301 -2299 l27 -250 -50 -46 c-98 -90 -253 -154 -373 -154 -114 0 -114 0
-129 151 -7 70 -35 301 -61 513 -27 212 -74 583 -104 825 -60 475 -85 695 -78
695 2 0 37 -27 78 -61 41 -33 74 -54 74 -47 0 36 -58 216 -100 310 -47 105
-163 319 -200 368 l-19 25 -37 -79 -37 -78 12 -126 c26 -281 62 -580 166
-1387 61 -473 120 -1043 110 -1054 -10 -9 -133 59 -215 119 -63 47 -170 139
-410 354 -116 104 -571 483 -837 698 l-82 66 38 16 c129 51 337 66 473 33 155
-38 313 -118 417 -212 l41 -37 11 28 c18 45 23 214 9 273 -11 45 -18 55 -64
86 -154 102 -295 253 -371 396 -56 107 -126 317 -154 459 -21 113 -38 290 -27
290 4 0 23 -7 44 -16 80 -34 82 -35 75 -16 -4 9 -56 116 -116 237 -60 121
-113 230 -118 243 -13 34 -25 27 -52 -30 -42 -89 -57 -156 -57 -252 0 -190 36
-380 146 -768 64 -226 94 -342 94 -365 0 -10 -30 -13 -115 -13 -174 0 -402
-52 -547 -125 l-49 -24 -267 186 c-273 191 -924 643 -1067 742 -44 30 -119 83
-167 118 -48 34 -97 67 -109 74 -29 15 -19 24 131 109 242 137 606 305 950
439 74 29 144 57 155 62 50 21 643 248 665 254 14 3 153 48 310 100 483 158
612 190 850 205 153 10 202 4 243 -26 49 -37 72 -124 48 -187 -10 -26 -89
-127 -159 -202 -371 -400 -452 -506 -517 -678 -35 -95 -31 -107 17 -45 51 65
143 172 218 253 191 208 318 361 398 480 68 102 166 301 182 370 16 74 17 174
0 206 -24 46 -74 89 -127 109 -89 33 -158 27 -418 -39z m-2615 -2070 c528
-402 791 -602 842 -640 26 -20 46 -39 45 -43 -1 -3 -40 -41 -87 -84 -47 -42
-170 -159 -275 -259 -104 -99 -228 -217 -275 -260 -92 -87 -306 -270 -410
-352 -90 -70 -296 -204 -378 -244 -61 -31 -75 -34 -152 -33 -180 1 -273 86
-315 289 -19 92 -19 121 0 228 20 117 63 241 149 427 l72 158 75 59 c131 105
222 221 260 330 10 31 19 62 19 70 0 23 -39 -3 -96 -63 -40 -42 -58 -54 -81
-54 -17 0 -35 6 -40 13 -23 28 -43 115 -43 181 0 141 59 273 228 508 l55 78
36 -27 c20 -15 187 -142 371 -282z m1325 -1057 c322 -272 505 -485 611 -708
69 -147 72 -133 -43 -209 -186 -123 -338 -196 -698 -334 -382 -146 -426 -164
-589 -245 -269 -133 -376 -214 -646 -486 -157 -158 -196 -192 -254 -222 -53
-26 -85 -35 -136 -38 -127 -7 -192 29 -258 147 -123 219 -90 506 106 932 27
58 35 67 69 77 57 17 244 115 332 174 156 105 280 210 586 497 121 113 240
224 265 248 78 72 262 219 355 281 l89 61 46 -37 c25 -20 99 -82 165 -138z
m874 -1370 c19 -24 30 -94 15 -94 -24 0 -70 43 -85 80 -18 45 37 56 70 14z
m2318 -36 c98 -60 183 -232 183 -371 0 -56 -2 -59 -47 -104 -26 -25 -63 -55
-83 -68 -46 -28 -168 -95 -175 -95 -11 0 -74 139 -100 220 -32 99 -43 233 -26
298 14 49 72 119 116 138 36 17 88 10 132 -18z"/>
<path d="M1153 4721 c-26 -12 -52 -35 -70 -62 -24 -37 -28 -52 -28 -113 0 -60
5 -78 27 -112 15 -23 43 -55 62 -71 l36 -29 -82 -109 c-59 -80 -167 -195 -390
-417 -170 -170 -307 -308 -304 -308 15 0 307 215 391 288 193 168 290 273 390
425 32 48 62 87 67 87 5 0 33 -22 62 -50 58 -55 75 -61 77 -27 3 67 -11 104
-69 174 l-34 43 7 120 7 119 -30 31 c-35 35 -61 37 -119 11z m65 -137 c16 -11
22 -25 22 -55 0 -46 -12 -49 -61 -16 -37 25 -47 50 -29 72 16 19 40 19 68 -1z"/>
<path d="M1913 3488 c-5 -7 -27 -42 -48 -78 -21 -36 -47 -80 -57 -98 l-20 -32
69 -71 c59 -62 172 -149 192 -149 4 0 38 41 75 90 38 50 73 90 78 90 6 0 59
-43 119 -95 59 -52 115 -95 123 -95 27 0 75 52 121 130 l44 75 -107 108 c-91
92 -145 137 -166 137 -2 0 -30 -38 -61 -84 -86 -129 -80 -126 -156 -60 -62 55
-182 144 -192 144 -2 0 -9 -6 -14 -12z"/>
<path d="M1512 3098 c-11 -18 -25 -49 -31 -68 -9 -29 -31 -225 -31 -282 0 -32
-16 -19 -82 65 -80 100 -148 164 -184 173 -43 11 -74 -32 -74 -102 0 -49 3
-57 37 -89 40 -38 74 -47 114 -31 21 9 101 -93 150 -191 l37 -74 15 48 c23 72
25 87 37 228 12 152 27 224 47 232 8 3 28 -9 48 -32 45 -49 67 -44 79 16 8 41
6 51 -13 78 -26 36 -69 61 -105 61 -17 0 -30 -10 -44 -32z"/>
<path d="M807 2648 c-36 -62 -74 -174 -92 -274 -26 -136 -5 -223 60 -250 48
-20 60 -18 94 17 36 35 55 98 46 146 l-6 34 -22 -28 c-48 -63 -68 -67 -92 -17
-26 56 -22 158 13 294 16 63 28 116 27 118 -2 2 -14 -16 -28 -40z"/>
<path d="M5299 6824 c-57 -121 -58 -156 -11 -419 67 -378 111 -678 171 -1165
22 -179 49 -397 60 -485 l20 -160 -177 -173 -177 -174 70 35 c39 19 121 71
184 116 62 45 114 81 116 81 5 0 34 -129 50 -217 13 -78 37 -344 52 -568 6
-98 6 -99 20 -66 34 80 64 224 75 358 12 147 2 396 -23 565 l-11 75 67 84
c110 138 103 131 125 119 31 -16 42 -2 38 44 -3 25 3 62 15 96 13 37 20 83 21
140 1 73 -2 91 -24 130 -43 77 -100 83 -166 19 -79 -76 -81 -140 -9 -257 41
-65 45 -78 35 -97 -18 -34 -84 -118 -95 -122 -6 -2 -25 103 -47 255 -20 141
-69 475 -108 741 -38 267 -68 487 -65 490 3 2 27 -15 53 -40 26 -24 60 -56 76
-69 l29 -25 -7 40 c-16 91 -121 369 -171 450 -7 11 -28 49 -47 85 -51 96 -99
180 -103 180 -2 0 -18 -30 -36 -66z m577 -1662 c29 -19 43 -82 25 -111 -8 -12
-16 -8 -45 21 -34 34 -47 74 -29 91 8 9 35 9 49 -1z"/>
<path d="M3327 6482 c-47 -155 -49 -314 -6 -397 30 -60 50 -73 81 -57 50 27
91 123 73 169 -6 16 -11 12 -40 -22 l-34 -40 -31 31 c-41 40 -47 85 -30 228
15 130 10 164 -13 88z"/>
<path d="M4226 6314 c-21 -62 -40 -207 -33 -256 7 -49 38 -85 88 -99 32 -10
43 -9 83 11 78 37 136 125 136 201 -1 40 -36 105 -71 132 -35 26 -125 57 -165
57 -17 0 -25 -10 -38 -46z m127 -85 c39 -20 77 -62 77 -85 0 -28 -24 -52 -67
-70 -42 -18 -73 -18 -100 1 -19 13 -21 22 -16 77 2 35 6 69 8 76 5 15 69 16
98 1z"/>
<path d="M2213 6144 c-48 -110 -75 -225 -80 -344 -4 -90 -2 -123 10 -152 30
-70 112 -95 162 -48 27 26 49 88 39 114 -6 15 -10 14 -40 -5 -41 -25 -54 -18
-87 45 -28 54 -27 143 2 266 12 53 21 114 19 135 l-3 40 -22 -51z"/>
<path d="M1563 5960 c-73 -186 -101 -372 -71 -472 31 -105 154 -119 194 -22
16 38 19 84 5 84 -5 0 -23 -8 -39 -17 -36 -21 -51 -12 -81 51 -27 55 -27 133
0 246 11 48 19 110 17 136 l-3 49 -22 -55z"/>
<path d="M5066 5878 c-49 -152 -56 -324 -18 -411 22 -49 67 -87 104 -87 60 0
104 103 81 188 -5 22 -8 21 -34 -22 -16 -25 -33 -46 -37 -46 -11 0 -57 50 -71
78 -19 37 -24 144 -12 247 7 53 11 99 8 101 -2 2 -12 -19 -21 -48z"/>
<path d="M6647 5510 c-40 -98 -48 -171 -23 -218 8 -15 28 -133 46 -262 17
-129 45 -327 60 -440 16 -113 52 -369 80 -570 27 -201 55 -394 60 -430 35
-229 59 -485 95 -1002 14 -202 29 -386 33 -409 l7 -41 42 109 c24 59 47 128
53 153 13 59 13 486 0 665 -16 215 -47 480 -96 815 -104 708 -153 1099 -143
1129 2 6 37 -17 77 -50 41 -34 76 -59 78 -56 15 14 -45 194 -103 310 -30 61
-206 361 -223 380 -3 4 -23 -33 -43 -83z"/>
<path d="M2539 5501 c-50 -54 -70 -119 -83 -283 -7 -75 -14 -139 -17 -142 -2
-2 -28 30 -56 73 -98 144 -146 187 -229 205 -51 11 -67 -13 -62 -92 4 -58 8
-68 36 -93 23 -21 43 -29 70 -29 73 0 117 -43 197 -195 26 -49 51 -94 55 -98
4 -5 15 11 25 35 14 34 20 87 26 243 4 119 13 218 21 245 12 40 18 45 45 48
25 2 40 -5 72 -34 l41 -36 15 35 c28 68 16 115 -35 142 -49 25 -79 19 -121
-24z"/>
<path d="M3800 5373 c-36 -44 -65 -131 -74 -223 -14 -131 -7 -128 -94 -41 -79
79 -156 126 -224 137 -34 6 -36 4 -43 -25 -8 -39 10 -96 38 -116 12 -8 37 -15
57 -15 79 -1 148 -57 255 -205 l50 -70 5 226 c5 234 10 259 49 259 9 0 34 -11
56 -25 51 -31 52 -31 60 5 11 49 -3 89 -38 111 -45 27 -61 24 -97 -18z"/>
<path d="M4515 4786 c-55 -132 -66 -312 -26 -433 31 -95 73 -144 123 -146 45
-1 74 22 88 72 20 71 8 161 -21 161 -6 0 -19 -21 -31 -47 -11 -27 -22 -49 -23
-51 -9 -10 -59 36 -80 73 -35 59 -39 111 -21 264 9 73 14 136 12 139 -3 3 -13
-12 -21 -32z"/>
<path d="M5968 4375 c-15 -27 -49 -150 -63 -229 -17 -103 -20 -254 -4 -310 16
-57 51 -88 97 -84 31 3 40 9 59 44 25 44 43 154 25 154 -5 0 -21 -18 -34 -41
l-24 -41 -32 36 c-57 65 -67 169 -31 351 18 98 21 144 7 120z"/>
<path d="M7146 4210 c-36 -163 -44 -306 -23 -380 29 -98 107 -150 151 -101 20
22 31 80 22 117 l-7 27 -29 -28 -28 -27 -26 38 c-49 76 -54 141 -28 365 15
126 -2 121 -32 -11z"/>
<path d="M3857 4153 c-41 -79 -87 -265 -87 -352 0 -95 43 -173 101 -186 51
-12 119 75 119 154 0 28 -9 27 -49 -9 -32 -30 -34 -30 -54 -13 -30 27 -57 93
-57 143 0 25 11 99 25 165 13 66 22 121 20 123 -2 2 -10 -9 -18 -25z"/>
<path d="M4850 3688 c-46 -25 -161 -92 -326 -189 -30 -18 -54 -56 -54 -85 0
-15 56 11 215 101 44 24 110 61 147 82 54 30 70 44 83 75 8 21 15 41 15 43 0
11 -28 1 -80 -27z"/>
<path d="M5361 3504 c-34 -58 -61 -111 -61 -116 0 -20 140 -153 196 -188 l57
-34 33 39 c19 22 51 64 71 92 21 29 43 52 50 50 6 -1 59 -44 117 -94 58 -51
113 -93 124 -93 25 0 82 63 126 139 l37 64 -68 70 c-139 143 -179 174 -209
163 -7 -3 -38 -43 -69 -90 -31 -46 -62 -86 -69 -89 -9 -4 -53 27 -105 72 -50
42 -109 87 -130 99 l-39 22 -61 -106z"/>
<path d="M4864 2416 c-42 -18 -111 -82 -130 -119 -20 -38 -14 -60 36 -126 22
-30 40 -58 40 -62 0 -3 -22 -35 -50 -69 -27 -34 -50 -64 -50 -65 0 -14 83 25
119 55 25 21 83 56 127 78 83 42 134 88 134 123 0 23 3 24 -82 -2 -92 -28
-162 -23 -195 15 -33 39 -29 59 18 84 l42 22 14 -20 c8 -11 23 -20 34 -20 16
0 19 7 19 50 0 38 -4 52 -19 60 -23 12 -19 12 -57 -4z"/>
<path d="M6171 2359 c-63 -146 -96 -425 -58 -496 32 -59 87 -70 132 -25 36 35
55 81 55 132 0 48 -16 53 -28 8 -4 -17 -16 -36 -26 -42 -14 -9 -22 -5 -46 22
-57 68 -64 185 -21 361 11 47 19 86 17 88 -2 2 -13 -20 -25 -48z"/>
<path d="M2707 2314 c-15 -8 -117 -54 -225 -101 -108 -46 -242 -104 -297 -128
-55 -24 -176 -76 -269 -115 -94 -39 -184 -82 -202 -95 -46 -35 -84 -117 -84
-181 0 -49 2 -54 50 -98 60 -56 84 -57 88 -5 2 27 -5 48 -33 89 -25 37 -32 56
-25 65 23 27 469 239 610 290 94 33 340 149 363 170 62 58 97 126 65 125 -7
-1 -26 -8 -41 -16z"/>
<path d="M3321 2038 c-19 -59 -39 -162 -46 -235 -11 -111 23 -153 124 -153 37
0 57 7 87 29 74 54 114 117 114 178 -1 77 -79 167 -171 196 -77 25 -96 23
-108 -15z m105 -104 c19 -9 53 -37 75 -63 l41 -46 -29 -22 c-41 -33 -104 -52
-144 -44 -34 7 -34 8 -37 66 -5 93 4 125 34 125 14 0 41 -7 60 -16z"/>
<path d="M2274 1715 c-28 -43 -44 -134 -44 -255 0 -100 -9 -156 -23 -140 -2 3
-24 32 -48 65 -90 124 -149 175 -203 175 -31 0 -35 -7 -43 -68 -4 -35 -1 -58
11 -80 14 -28 22 -32 55 -32 69 0 128 -56 211 -198 23 -41 45 -70 50 -65 35
39 53 196 40 354 -10 127 -8 159 14 159 6 0 36 -19 66 -41 l55 -40 18 42 c23
51 13 77 -47 121 -50 36 -90 37 -112 3z"/>
<path d="M996 1489 c-15 -17 -34 -48 -42 -68 -26 -59 -47 -195 -39 -246 7 -52
45 -101 85 -110 51 -12 118 73 104 130 -6 23 -7 24 -35 10 -42 -22 -57 -19
-79 18 -29 47 -26 119 9 216 15 45 27 81 25 81 -1 0 -14 -14 -28 -31z"/>
<path d="M5602 1123 c-23 -42 -62 -220 -69 -309 -8 -123 2 -180 37 -216 52
-52 104 -29 148 65 22 48 39 137 26 137 -5 0 -21 -20 -36 -43 -34 -54 -60 -78
-74 -69 -17 11 -51 83 -59 123 -4 22 3 85 20 172 27 137 29 182 7 140z"/>
<path d="M5118 873 c-43 -45 -58 -95 -73 -250 -8 -81 -16 -148 -18 -149 -2 -2
-28 40 -60 94 -73 126 -137 198 -201 228 -28 13 -57 24 -64 24 -22 0 -45 -70
-38 -119 7 -50 39 -108 64 -114 9 -3 39 -11 67 -18 72 -19 123 -74 183 -200
44 -94 50 -101 60 -82 28 52 43 145 48 293 3 85 10 165 16 178 16 32 50 28
104 -13 25 -19 49 -35 52 -35 4 0 16 15 25 33 17 31 17 37 4 68 -20 48 -59 80
-104 86 -32 4 -42 1 -65 -24z"/>
<path d="M4242 673 c-23 -42 -62 -220 -69 -309 -8 -123 2 -180 37 -216 52 -52
104 -29 148 65 22 48 39 137 26 137 -5 0 -25 -25 -44 -55 -50 -78 -62 -79 -98
-10 -34 69 -35 101 -7 248 27 137 29 182 7 140z"/>
<path d="M2244 573 c-9 -20 -23 -73 -31 -117 -35 -185 18 -308 123 -288 32 6
72 75 80 138 l7 49 -42 -39 -41 -40 -30 29 c-42 40 -51 83 -44 203 4 56 4 102
0 102 -4 0 -14 -17 -22 -37z"/>
</g>
</svg>
